<svg width="50" height="50" viewBox="0 0 50 50" fill="none" xmlns="http://www.w3.org/2000/svg">
  <rect width="50" height="50" rx="25" fill="#7C3AED" />
  <path d="M25 15C21.13 15 18 18.13 18 22C18 24.65 19.55 26.92 21.76 28.06C18.96 29.35 17 32.02 17 35.13V36C17 36.55 17.45 37 18 37H32C32.55 37 33 36.55 33 36V35.13C33 32.02 31.04 29.35 28.24 28.06C30.45 26.92 32 24.65 32 22C32 18.13 28.87 15 25 15ZM25 19C26.66 19 28 20.34 28 22C28 23.66 26.66 25 25 25C23.34 25 22 23.66 22 22C22 20.34 23.34 19 25 19ZM25 31C27.34 31 29.27 32.46 29.88 34.5H20.12C20.73 32.46 22.66 31 25 31Z" fill="white" />
</svg> 