<svg width="600" height="500" viewBox="0 0 600 500" fill="none" xmlns="http://www.w3.org/2000/svg">
  <rect width="600" height="500" rx="10" fill="url(#paint0_linear)" />
  <rect x="30" y="30" width="540" height="60" rx="8" fill="#2A2A2A" />
  <rect x="50" y="50" width="200" height="20" rx="4" fill="#555555" />
  <rect x="450" y="50" width="100" height="20" rx="4" fill="#7C3AED" />
  <rect x="30" y="110" width="300" height="360" rx="8" fill="#2A2A2A" />
  <rect x="50" y="130" width="260" height="20" rx="4" fill="#555555" />
  <rect x="50" y="160" width="200" height="20" rx="4" fill="#555555" />
  <rect x="50" y="190" width="240" height="20" rx="4" fill="#555555" />
  <rect x="50" y="240" width="260" height="20" rx="4" fill="#333333" />
  <rect x="50" y="270" width="220" height="20" rx="4" fill="#333333" />
  <rect x="50" y="300" width="240" height="20" rx="4" fill="#333333" />
  <rect x="50" y="350" width="260" height="80" rx="8" fill="#1F1F1F" />
  <rect x="70" y="370" width="220" height="20" rx="4" fill="#333333" />
  <rect x="70" y="400" width="200" height="10" rx="2" fill="#333333" />
  <rect x="350" y="110" width="220" height="120" rx="8" fill="#2A2A2A" />
  <rect x="370" y="130" width="180" height="10" rx="2" fill="#555555" />
  <rect x="370" y="150" width="160" height="10" rx="2" fill="#555555" />
  <rect x="370" y="170" width="170" height="10" rx="2" fill="#555555" />
  <rect x="370" y="190" width="150" height="10" rx="2" fill="#555555" />
  <rect x="370" y="210" width="140" height="10" rx="2" fill="#7C3AED" />
  <rect x="350" y="250" width="220" height="120" rx="8" fill="#2A2A2A" />
  <rect x="370" y="270" width="180" height="10" rx="2" fill="#555555" />
  <rect x="370" y="290" width="160" height="10" rx="2" fill="#555555" />
  <rect x="370" y="310" width="170" height="10" rx="2" fill="#555555" />
  <rect x="370" y="330" width="150" height="10" rx="2" fill="#555555" />
  <rect x="370" y="350" width="140" height="10" rx="2" fill="#7C3AED" />
  <rect x="350" y="390" width="220" height="80" rx="8" fill="#2A2A2A" />
  <rect x="370" y="410" width="180" height="10" rx="2" fill="#555555" />
  <rect x="370" y="430" width="160" height="10" rx="2" fill="#555555" />
  <rect x="370" y="450" width="170" height="10" rx="2" fill="#555555" />
  <circle cx="325" cy="415" r="25" fill="#7C3AED" />
  <path d="M325 400V430M310 415H340" stroke="white" stroke-width="4" stroke-linecap="round" />
  <defs>
    <linearGradient id="paint0_linear" x1="0" y1="0" x2="600" y2="500" gradientUnits="userSpaceOnUse">
      <stop stop-color="#121212" />
      <stop offset="1" stop-color="#1A1A1A" />
    </linearGradient>
  </defs>
</svg> 